<svg width="83" height="83" viewBox="0 0 83 83" fill="none" xmlns="http://www.w3.org/2000/svg">
<path d="M36.52 0C33.7901 0 31.54 2.25008 31.54 4.98V9.96C31.54 10.8289 31.8447 11.7173 32.4737 12.3462C32.9406 12.8131 33.5372 13.1114 34.1856 13.2281C33.9392 13.4227 33.6344 13.5718 33.2519 13.6431H33.2C25.6587 15.2966 19.92 21.9496 19.92 30.0356V34.86C19.92 36.948 21.3984 38.4329 23.24 39.1656V60.4344C21.3984 61.1671 19.92 62.652 19.92 64.74V74.7C19.92 79.2585 23.6615 83 28.22 83H54.78C59.3385 83 63.08 79.2585 63.08 74.7V64.74C63.08 62.652 61.6015 61.1671 59.76 60.4344V39.1656C61.6015 38.4329 63.08 36.948 63.08 34.86V30.0356C63.08 21.9496 57.3413 15.2966 49.8 13.6431H49.7481C49.3655 13.5718 49.0608 13.4227 48.8144 13.2281C49.4628 13.1114 50.0594 12.8131 50.5262 12.3462C51.1552 11.7173 51.46 10.8289 51.46 9.96V4.98C51.46 2.25008 49.2099 0 46.48 0H36.52ZM36.52 3.32H46.48C47.4008 3.32 48.14 4.05922 48.14 4.98V9.96H34.86V4.98C34.86 4.05922 35.5992 3.32 36.52 3.32ZM37.6094 13.28H45.3906C45.9937 15.0178 47.2192 16.4833 49.1256 16.8594V16.9112C49.1386 16.9112 49.1645 16.9112 49.1775 16.9112C55.2274 18.26 59.76 23.5318 59.76 30.0356V34.86C59.76 35.7808 59.0208 36.52 58.1 36.52H29.88V39.84H56.44V59.76H29.88V63.08H58.1C59.0208 63.08 59.76 63.8192 59.76 64.74V74.7C59.76 77.4494 57.5294 79.68 54.78 79.68H28.22C25.4706 79.68 23.24 77.4494 23.24 74.7V64.74C23.24 63.8192 23.9792 63.08 24.9 63.08H26.56V36.52H24.9C23.9792 36.52 23.24 35.7808 23.24 34.86V30.0356C23.24 23.5318 27.7726 18.26 33.8225 16.9112C33.8484 16.9048 33.8484 16.8659 33.8744 16.8594C35.7808 16.4833 37.0063 15.0178 37.6094 13.28Z" fill="black"/>
</svg>
