<?xml version="1.0" encoding="iso-8859-1"?>
<!-- Uploaded to: SVG Repo, www.svgrepo.com, Generator: SVG Repo Mixer Tools -->
<svg fill="#000000" version="1.1" id="Capa_1" xmlns="http://www.w3.org/2000/svg" xmlns:xlink="http://www.w3.org/1999/xlink" 
	 viewBox="0 0 66 66" xml:space="preserve">
<g>
	<path d="M1,10h19c0.553,0,1-0.447,1-1c0-3.309-2.691-6-6-6c-0.499,0-1.001,0.067-1.5,0.2C12.018,1.795,10.048,1,8,1
		C3.589,1,0,4.589,0,9C0,9.553,0.447,10,1,10z M8,3c1.699,0,3.329,0.732,4.471,2.009c0.276,0.311,0.716,0.416,1.102,0.268
		c2.386-0.914,4.743,0.566,5.3,2.724H2.083C2.56,5.166,5.032,3,8,3z"/>
	<path d="M60,26c-0.499,0-1.001,0.067-1.5,0.2C57.018,24.795,55.048,24,53,24c-4.411,0-8,3.589-8,8c0,0.553,0.447,1,1,1h19
		c0.553,0,1-0.447,1-1C66,28.691,63.309,26,60,26z M47.083,31c0.477-2.834,2.949-5,5.917-5c1.699,0,3.329,0.732,4.471,2.009
		c0.276,0.31,0.717,0.417,1.103,0.268c2.386-0.915,4.743,0.566,5.3,2.724L47.083,31L47.083,31z"/>
	<path d="M57.707,40.293c-0.286-0.286-0.715-0.373-1.09-0.217C56.243,40.23,56,40.596,56,41v3.586l-4.293-4.293
		c-0.286-0.286-0.716-0.373-1.09-0.217C50.243,40.23,50,40.596,50,41v3.586l-4.293-4.293c-0.286-0.286-0.715-0.373-1.09-0.217
		C44.243,40.23,44,40.596,44,41v3.586l-4.293-4.293c-0.286-0.286-0.716-0.373-1.09-0.217C38.243,40.23,38,40.596,38,41v3.586
		l-4.293-4.293c-0.285-0.286-0.715-0.373-1.09-0.217C32.243,40.23,32,40.596,32,41v3.586l-4.293-4.293
		c-0.286-0.286-0.715-0.373-1.09-0.217C26.243,40.23,26,40.596,26,41v12h-5V33c0-0.553-0.447-1-1-1h-4c-0.553,0-1,0.447-1,1v6h-3
		c-0.553,0-1,0.447-1,1v18H1c-0.553,0-1,0.447-1,1v4v1v1h1h11h4h4h7h37v-1v-1V47c0-0.266-0.106-0.52-0.293-0.707L57.707,40.293z
		 M2,60h9v3H2V60z M13,59V41h2v22h-2V59z M17,40v-6h2v20v9h-2V40z M21,55h5v8h-5V55z M28,63v-9V43.414l4.293,4.293
		c0.287,0.287,0.717,0.374,1.09,0.217C33.757,47.77,34,47.404,34,47v-3.586l4.293,4.293c0.286,0.287,0.716,0.374,1.09,0.217
		C39.757,47.77,40,47.404,40,47v-3.586l4.293,4.293c0.287,0.287,0.717,0.374,1.09,0.217C45.757,47.77,46,47.404,46,47v-3.586
		l4.293,4.293c0.287,0.287,0.716,0.374,1.09,0.217C51.757,47.77,52,47.404,52,47v-3.586l4.293,4.293
		c0.287,0.287,0.717,0.374,1.09,0.217C57.757,47.77,58,47.404,58,47v-3.586l4,4V63H28z"/>
	<rect x="46" y="50" width="2" height="2"/>
	<rect x="34" y="50" width="2" height="2"/>
	<rect x="38" y="50" width="2" height="2"/>
	<rect x="42" y="50" width="2" height="2"/>
	<rect x="30" y="50" width="2" height="2"/>
	<rect x="46" y="54" width="2" height="2"/>
	<rect x="34" y="54" width="2" height="2"/>
	<rect x="38" y="54" width="2" height="2"/>
	<rect x="42" y="54" width="2" height="2"/>
	<rect x="30" y="54" width="2" height="2"/>
	<rect x="46" y="58" width="2" height="2"/>
	<rect x="34" y="58" width="2" height="2"/>
	<rect x="38" y="58" width="2" height="2"/>
	<rect x="42" y="58" width="2" height="2"/>
	<rect x="58" y="50" width="2" height="2"/>
	<rect x="50" y="50" width="2" height="2"/>
	<rect x="54" y="50" width="2" height="2"/>
	<rect x="58" y="54" width="2" height="2"/>
	<rect x="50" y="54" width="2" height="2"/>
	<rect x="54" y="54" width="2" height="2"/>
	<rect x="58" y="58" width="2" height="2"/>
	<rect x="50" y="58" width="2" height="2"/>
	<rect x="54" y="58" width="2" height="2"/>
	<rect x="30" y="58" width="2" height="2"/>
	<path d="M21,28c0-1.103,0.897-2,2-2h10c2.206,0,4-1.794,4-4c0-1.103,0.897-2,2-2h18v-2H39c-2.206,0-4,1.794-4,4
		c0,1.103-0.898,2-2,2H23c-2.206,0-4,1.794-4,4v2h2V28z"/>
	<path d="M23,22c2.206,0,4-1.794,4-4v-1c0-1.102,0.897-2,2-2h18v-2H29c-2.206,0-4,1.794-4,4v1c0,1.103-0.898,2-2,2h-4
		c-2.206,0-4,1.794-4,4v6h2v-6c0-1.103,0.897-2,2-2H23z"/>
	<path d="M16,13v2h5c2.206,0,4-1.794,4-4c0-1.102,0.897-2,2-2h25c2.206,0,4-1.794,4-4V3h-2v2c0,1.102-0.898,2-2,2H27
		c-2.206,0-4,1.794-4,4c0,1.102-0.898,2-2,2H16z"/>
	<rect x="53" y="13" width="2" height="2"/>
	<rect x="57" y="13" width="2" height="2"/>
	<rect x="61" y="13" width="2" height="2"/>
	<rect x="49" y="13" width="2" height="2"/>
	<rect x="42" y="1" width="2" height="2"/>
	<rect x="46" y="1" width="2" height="2"/>
	<rect x="50" y="1" width="2" height="2"/>
	<rect x="38" y="1" width="2" height="2"/>
</g>
</svg>