<svg width="61" height="61" viewBox="0 0 61 61" fill="none" xmlns="http://www.w3.org/2000/svg">
<g clip-path="url(#clip0_37_227)">
<path d="M47.6302 3.96727V3.76027C47.6302 1.68687 45.9433 0 43.8699 0H17.1302C15.0568 0 13.3699 1.68687 13.3699 3.76027V3.96727C12.2609 4.34186 11.4599 5.3914 11.4599 6.62524V15.2202C11.4599 16.454 12.2609 17.5035 13.3699 17.8781V57.2397C13.3699 59.3131 15.0568 61 17.1302 61H43.8699C45.9433 61 47.6302 59.3131 47.6302 57.2397V17.8781C48.7391 17.5035 49.5401 16.454 49.5401 15.2202V6.62524C49.5401 5.3914 48.7391 4.34186 47.6302 3.96727ZM30.5 35.2153H45.8395V37.2446H41.0049C40.5105 37.2446 40.1096 37.6455 40.1096 38.1399C40.1096 38.6344 40.5105 39.0352 41.0049 39.0352H45.8395V41.0646H38.1399C37.6455 41.0646 37.2446 41.4654 37.2446 41.9599C37.2446 42.4543 37.6455 42.8552 38.1399 42.8552H45.8395V45.8395H26.6801C26.1206 45.8395 25.6654 45.3844 25.6654 44.8249V31.455C25.6654 30.8955 26.1206 30.4403 26.6801 30.4403H45.8395V33.4247H30.5C30.0056 33.4247 29.6047 33.8255 29.6047 34.32C29.6047 34.8144 30.0056 35.2153 30.5 35.2153ZM42.8552 16.2348V5.61057H44.8846V16.2348H42.8552ZM39.0352 16.2348V5.61057H41.0646V16.2348H39.0352ZM35.2153 16.2348V5.61057H37.2446V16.2348H35.2153ZM31.3953 16.2348V5.61057H33.4247V16.2348H31.3953ZM27.5754 16.2348V5.61057H29.6047V16.2348H27.5754ZM23.7554 16.2348V5.61057H25.7848V16.2348H23.7554ZM19.9354 16.2348V5.61057H21.9648V16.2348H19.9354ZM16.1155 16.2348V5.61057H18.1448V16.2348H16.1155ZM17.1302 1.79061H43.8699C44.9559 1.79061 45.8395 2.67421 45.8395 3.76027V3.81996H15.1605V3.76027C15.1605 2.67421 16.0441 1.79061 17.1302 1.79061ZM13.2505 6.62524C13.2505 6.06574 13.7057 5.61057 14.2652 5.61057H14.3249V16.2348H14.2652C13.7057 16.2348 13.2505 15.7797 13.2505 15.2202V6.62524ZM43.8699 59.2094H17.1302C16.0441 59.2094 15.1605 58.3258 15.1605 57.2397V18.0254H45.8395V28.6497H26.6801C25.1332 28.6497 23.8748 29.9081 23.8748 31.455V44.8249C23.8748 46.3717 25.1332 47.6301 26.6801 47.6301H45.8395V57.2397C45.8395 58.3258 44.9559 59.2094 43.8699 59.2094ZM47.7495 15.2202C47.7495 15.7797 47.2944 16.2348 46.7349 16.2348H46.6752V5.61057H46.7349C47.2944 5.61057 47.7495 6.06574 47.7495 6.62524V15.2202Z" fill="black"/>
<path d="M35.2749 39.0352H37.1849C37.6794 39.0352 38.0802 38.6344 38.0802 38.1399C38.0802 37.6455 37.6794 37.2446 37.1849 37.2446H35.2749C34.7805 37.2446 34.3796 37.6455 34.3796 38.1399C34.3796 38.6344 34.7805 39.0352 35.2749 39.0352Z" fill="black"/>
</g>
<defs>
<clipPath id="clip0_37_227">
<rect width="61" height="61" fill="white"/>
</clipPath>
</defs>
</svg>
